<mxfile host="65bd71144e">
    <diagram id="c2virb_7Ph848Dk3cCcT" name="Page-1">
        <mxGraphModel dx="1753" dy="1831" grid="1" gridSize="10" guides="1" tooltips="1" connect="1" arrows="1" fold="1" page="1" pageScale="1" pageWidth="827" pageHeight="1169" math="0" shadow="0">
            <root>
                <mxCell id="0"/>
                <mxCell id="1" parent="0"/>
                <mxCell id="24" value="" style="rounded=0;whiteSpace=wrap;html=1;strokeWidth=3;" vertex="1" parent="1">
                    <mxGeometry x="-250" y="30" width="1010" height="680" as="geometry"/>
                </mxCell>
                <mxCell id="4" value="" style="rounded=0;whiteSpace=wrap;html=1;strokeWidth=3;fontFamily=배달의민족 주아;fontSize=30;" vertex="1" parent="1">
                    <mxGeometry x="430" y="100" width="290" height="270" as="geometry"/>
                </mxCell>
                <mxCell id="5" value="클래스 로더" style="rounded=0;whiteSpace=wrap;html=1;strokeWidth=3;fontFamily=배달의민족 주아;fontSize=30;" vertex="1" parent="1">
                    <mxGeometry x="470" y="70" width="210" height="50" as="geometry"/>
                </mxCell>
                <mxCell id="6" value="Loading" style="rounded=0;whiteSpace=wrap;html=1;strokeWidth=3;fontFamily=배달의민족 주아;fontSize=25;" vertex="1" parent="1">
                    <mxGeometry x="470" y="150" width="210" height="50" as="geometry"/>
                </mxCell>
                <mxCell id="7" value="Linking" style="rounded=0;whiteSpace=wrap;html=1;strokeWidth=3;fontFamily=배달의민족 주아;fontSize=25;" vertex="1" parent="1">
                    <mxGeometry x="470" y="220" width="210" height="50" as="geometry"/>
                </mxCell>
                <mxCell id="8" value="Initialization" style="rounded=0;whiteSpace=wrap;html=1;strokeWidth=3;fontFamily=배달의민족 주아;fontSize=25;" vertex="1" parent="1">
                    <mxGeometry x="470" y="290" width="210" height="50" as="geometry"/>
                </mxCell>
                <mxCell id="9" value="" style="rounded=0;whiteSpace=wrap;html=1;strokeWidth=3;fontFamily=배달의민족 주아;fontSize=30;" vertex="1" parent="1">
                    <mxGeometry y="160" width="290" height="410" as="geometry"/>
                </mxCell>
                <mxCell id="10" value="런타임 데이터 영역" style="rounded=0;whiteSpace=wrap;html=1;strokeWidth=3;fontFamily=배달의민족 주아;fontSize=30;" vertex="1" parent="1">
                    <mxGeometry x="30" y="130" width="230" height="50" as="geometry"/>
                </mxCell>
                <mxCell id="23" style="edgeStyle=none;html=1;exitX=0;exitY=0.5;exitDx=0;exitDy=0;strokeWidth=3;fillColor=#dae8fc;strokeColor=#3399FF;" edge="1" parent="1" source="11" target="22">
                    <mxGeometry relative="1" as="geometry">
                        <Array as="points">
                            <mxPoint x="-140" y="235"/>
                        </Array>
                    </mxGeometry>
                </mxCell>
                <mxCell id="11" value="Heap" style="rounded=0;whiteSpace=wrap;html=1;strokeWidth=3;fontFamily=배달의민족 주아;fontSize=25;dashed=1;strokeColor=#007FFF;" vertex="1" parent="1">
                    <mxGeometry x="29" y="210" width="240" height="50" as="geometry"/>
                </mxCell>
                <mxCell id="12" value="Stack" style="rounded=0;whiteSpace=wrap;html=1;strokeWidth=3;fontFamily=배달의민족 주아;fontSize=25;" vertex="1" parent="1">
                    <mxGeometry x="29" y="280" width="240" height="50" as="geometry"/>
                </mxCell>
                <mxCell id="13" value="Method Area" style="rounded=0;whiteSpace=wrap;html=1;strokeWidth=3;fontFamily=배달의민족 주아;fontSize=25;" vertex="1" parent="1">
                    <mxGeometry x="29" y="350" width="240" height="50" as="geometry"/>
                </mxCell>
                <mxCell id="14" value="PC Register" style="rounded=0;whiteSpace=wrap;html=1;strokeWidth=3;fontFamily=배달의민족 주아;fontSize=25;" vertex="1" parent="1">
                    <mxGeometry x="29" y="420" width="240" height="50" as="geometry"/>
                </mxCell>
                <mxCell id="15" value="Native Method Stack" style="rounded=0;whiteSpace=wrap;html=1;strokeWidth=3;fontFamily=배달의민족 주아;fontSize=25;" vertex="1" parent="1">
                    <mxGeometry x="29" y="490" width="240" height="50" as="geometry"/>
                </mxCell>
                <mxCell id="16" value="" style="rounded=0;whiteSpace=wrap;html=1;strokeWidth=3;fontFamily=배달의민족 주아;fontSize=30;" vertex="1" parent="1">
                    <mxGeometry x="430" y="470" width="290" height="200" as="geometry"/>
                </mxCell>
                <mxCell id="17" value="실행 엔진" style="rounded=0;whiteSpace=wrap;html=1;strokeWidth=3;fontFamily=배달의민족 주아;fontSize=30;" vertex="1" parent="1">
                    <mxGeometry x="470" y="440" width="210" height="50" as="geometry"/>
                </mxCell>
                <mxCell id="18" value="Interpreter" style="rounded=0;whiteSpace=wrap;html=1;strokeWidth=3;fontFamily=배달의민족 주아;fontSize=25;" vertex="1" parent="1">
                    <mxGeometry x="470" y="520" width="210" height="50" as="geometry"/>
                </mxCell>
                <mxCell id="19" value="JIT Compiler" style="rounded=0;whiteSpace=wrap;html=1;strokeWidth=3;fontFamily=배달의민족 주아;fontSize=25;" vertex="1" parent="1">
                    <mxGeometry x="470" y="590" width="210" height="50" as="geometry"/>
                </mxCell>
                <mxCell id="22" value="가비지 컬렉터" style="ellipse;whiteSpace=wrap;html=1;strokeWidth=3;fontFamily=배달의민족 주아;fontSize=25;fillColor=#dae8fc;strokeColor=#3399FF;" vertex="1" parent="1">
                    <mxGeometry x="-210" y="300" width="140" height="120" as="geometry"/>
                </mxCell>
                <mxCell id="25" value="JVM" style="rounded=0;whiteSpace=wrap;html=1;strokeWidth=3;fontFamily=배달의민족 주아;fontSize=30;" vertex="1" parent="1">
                    <mxGeometry x="-210" y="10" width="230" height="50" as="geometry"/>
                </mxCell>
                <mxCell id="27" value="" style="sketch=0;pointerEvents=1;shadow=0;dashed=0;html=1;strokeColor=none;fillColor=#505050;labelPosition=center;verticalLabelPosition=bottom;verticalAlign=top;outlineConnect=0;align=center;shape=mxgraph.office.concepts.settings;" vertex="1" parent="1">
                    <mxGeometry x="487" y="450" width="30" height="30" as="geometry"/>
                </mxCell>
                <mxCell id="28" value="" style="shape=mxgraph.signs.transportation.truck_3;html=1;pointerEvents=1;fillColor=#000000;strokeColor=none;verticalLabelPosition=bottom;verticalAlign=top;align=center;" vertex="1" parent="1">
                    <mxGeometry x="480" y="87" width="30" height="16" as="geometry"/>
                </mxCell>
                <mxCell id="29" value="&amp;nbsp;자바코드" style="verticalLabelPosition=bottom;html=1;verticalAlign=top;align=center;strokeColor=none;fillColor=#00BEF2;shape=mxgraph.azure.file_2;pointerEvents=1;fontSize=25;fontFamily=배달의민족 주아;" vertex="1" parent="1">
                    <mxGeometry x="120" y="-160" width="60" height="60" as="geometry"/>
                </mxCell>
                <mxCell id="32" value="바이트 코드(&lt;span&gt;.class)&lt;/span&gt;" style="verticalLabelPosition=bottom;html=1;verticalAlign=top;align=center;strokeColor=none;fillColor=#00BEF2;shape=mxgraph.azure.file_2;pointerEvents=1;fontSize=25;fontFamily=배달의민족 주아;" vertex="1" parent="1">
                    <mxGeometry x="435" y="-160" width="60" height="60" as="geometry"/>
                </mxCell>
                <mxCell id="34" style="edgeStyle=none;html=1;exitX=1;exitY=0.5;exitDx=0;exitDy=0;exitPerimeter=0;entryX=0;entryY=0.5;entryDx=0;entryDy=0;entryPerimeter=0;strokeWidth=3;fontSize=25;" edge="1" parent="1" source="29" target="32">
                    <mxGeometry relative="1" as="geometry"/>
                </mxCell>
                <mxCell id="35" value="자바컴파일러" style="edgeLabel;html=1;align=center;verticalAlign=middle;resizable=0;points=[];fontFamily=배달의민족 주아;fontSize=25;" vertex="1" connectable="0" parent="34">
                    <mxGeometry x="0.051" relative="1" as="geometry">
                        <mxPoint x="-14" y="-20" as="offset"/>
                    </mxGeometry>
                </mxCell>
                <mxCell id="36" value="" style="sketch=0;pointerEvents=1;shadow=0;dashed=0;html=1;strokeColor=none;fillColor=#505050;labelPosition=center;verticalLabelPosition=bottom;verticalAlign=top;outlineConnect=0;align=center;shape=mxgraph.office.concepts.settings;fontSize=25;" vertex="1" parent="1">
                    <mxGeometry x="366" y="-158" width="20" height="20" as="geometry"/>
                </mxCell>
                <mxCell id="37" value="" style="edgeStyle=segmentEdgeStyle;endArrow=classic;html=1;curved=0;rounded=0;endSize=8;startSize=8;exitX=1;exitY=0.5;exitDx=0;exitDy=0;exitPerimeter=0;entryX=0.5;entryY=0;entryDx=0;entryDy=0;strokeWidth=3;" edge="1" parent="1" source="32" target="5">
                    <mxGeometry width="50" height="50" relative="1" as="geometry">
                        <mxPoint x="200" y="130" as="sourcePoint"/>
                        <mxPoint x="250" y="80" as="targetPoint"/>
                    </mxGeometry>
                </mxCell>
                <mxCell id="40" value="" style="endArrow=classic;html=1;strokeWidth=3;" edge="1" parent="1">
                    <mxGeometry width="50" height="50" relative="1" as="geometry">
                        <mxPoint x="317" y="224.5" as="sourcePoint"/>
                        <mxPoint x="397" y="224.5" as="targetPoint"/>
                    </mxGeometry>
                </mxCell>
                <mxCell id="41" value="" style="endArrow=classic;html=1;strokeWidth=3;" edge="1" parent="1">
                    <mxGeometry width="50" height="50" relative="1" as="geometry">
                        <mxPoint x="397" y="244.5" as="sourcePoint"/>
                        <mxPoint x="317" y="244.5" as="targetPoint"/>
                    </mxGeometry>
                </mxCell>
                <mxCell id="42" value="" style="endArrow=classic;html=1;strokeWidth=3;" edge="1" parent="1">
                    <mxGeometry width="50" height="50" relative="1" as="geometry">
                        <mxPoint x="317" y="504.5" as="sourcePoint"/>
                        <mxPoint x="397" y="504.5" as="targetPoint"/>
                    </mxGeometry>
                </mxCell>
                <mxCell id="43" value="" style="endArrow=classic;html=1;strokeWidth=3;" edge="1" parent="1">
                    <mxGeometry width="50" height="50" relative="1" as="geometry">
                        <mxPoint x="397" y="524.5" as="sourcePoint"/>
                        <mxPoint x="317" y="524.5" as="targetPoint"/>
                    </mxGeometry>
                </mxCell>
                <mxCell id="44" value="" style="endArrow=classic;html=1;strokeWidth=3;entryX=0.782;entryY=0.574;entryDx=0;entryDy=0;entryPerimeter=0;" edge="1" parent="1">
                    <mxGeometry width="50" height="50" relative="1" as="geometry">
                        <mxPoint x="565" y="390" as="sourcePoint"/>
                        <mxPoint x="564.8200000000002" y="420.32000000000016" as="targetPoint"/>
                    </mxGeometry>
                </mxCell>
                <mxCell id="45" value="" style="endArrow=classic;html=1;strokeWidth=3;exitX=0.802;exitY=0.574;exitDx=0;exitDy=0;exitPerimeter=0;" edge="1" parent="1">
                    <mxGeometry width="50" height="50" relative="1" as="geometry">
                        <mxPoint x="585.02" y="420.32000000000016" as="sourcePoint"/>
                        <mxPoint x="585" y="390" as="targetPoint"/>
                    </mxGeometry>
                </mxCell>
            </root>
        </mxGraphModel>
    </diagram>
</mxfile>